<svg width="156" height="100" viewBox="0 0 156 100" fill="none" xmlns="http://www.w3.org/2000/svg">
<path d="M127.498 27.6182C126.062 27.8863 124.75 27.6132 123.562 26.799C122.374 25.9848 121.646 24.8595 121.378 23.4232C121.11 21.9869 121.383 20.6748 122.197 19.4869C123.003 18.2554 124.125 17.5057 125.561 17.2376C126.997 16.9695 128.313 17.2643 129.509 18.1221C130.741 18.9282 131.491 20.0494 131.759 21.4857C132.027 22.922 131.732 24.2382 130.874 25.4342C130.06 26.6221 128.935 27.3501 127.498 27.6182ZM129.883 65.0074C127.794 65.3974 125.975 65.0613 124.425 63.9993C122.919 62.9292 121.923 61.0884 121.435 58.4769C121.232 57.3888 121.142 55.9418 121.165 54.1358L121.693 32.3501L131.094 30.5953L130.537 53.6702C130.485 54.3556 130.528 55.0682 130.666 55.8081C130.828 56.6786 131.142 57.2732 131.607 57.5918C132.107 57.8587 132.836 57.9028 133.793 57.7241C134.577 57.5779 135.249 57.3173 135.809 56.9424C136.042 59.1512 135.571 60.9731 134.397 62.4082C133.259 63.7917 131.755 64.6581 129.883 65.0074Z" fill="white"/>
<path d="M96.9541 71.1539C94.4732 71.617 92.2474 71.1541 90.2766 69.7654C88.3058 68.3766 86.9833 65.876 86.309 62.2634C85.7078 59.0426 85.7094 55.5517 86.3135 51.7906C86.9531 47.9779 88.3076 44.6172 90.3771 41.7087C92.482 38.7484 95.2972 36.9393 98.8227 36.2813C100.607 35.9482 101.992 36.0051 102.976 36.452C103.96 36.8988 104.546 37.6228 104.732 38.6239L104.781 38.885L105.177 23.2719L114.596 20.1627L113.669 56.8189C113.616 57.5043 113.659 58.2169 113.797 58.9569C113.96 59.8273 114.273 60.4219 114.738 60.7405C115.239 61.0075 115.967 61.0516 116.925 60.8729C118.144 60.6454 119.091 59.9281 119.766 58.721C120.485 57.5059 120.944 55.979 121.141 54.1406L123.883 53.6288C122.682 61.9152 119.035 66.6271 112.942 67.7644C111.157 68.0975 109.61 67.8909 108.299 67.1446C107.032 66.3901 106.098 65.1233 105.495 63.344C104.689 65.2962 103.586 66.9884 102.187 68.4206C100.831 69.8447 99.0868 70.7558 96.9541 71.1539ZM100.016 64.029C101.06 63.834 102.016 63.1603 102.881 62.0078C103.791 60.8471 104.283 59.3815 104.358 57.6109L104.297 57.2845L104.705 41.7367C104.029 40.2865 102.995 39.6913 101.602 39.9513C99.8611 40.2763 98.4851 41.5915 97.4742 43.8972C96.4551 46.1593 95.8219 48.7997 95.5746 51.8186C95.3193 54.7939 95.3947 57.3697 95.8009 59.5459C96.2071 61.7221 96.7717 63.0581 97.4948 63.5537C98.2614 64.0411 99.1017 64.1996 100.016 64.029Z" fill="white"/>
<path d="M62.6215 77.5623C60.5323 77.9522 58.713 77.6162 57.1635 76.5542C55.6576 75.484 54.6609 73.6432 54.1735 71.0317C53.9704 69.9436 53.8804 68.4966 53.9037 66.6906L54.4315 44.9049L63.8328 43.1502L63.2754 66.2251C63.2666 66.9023 63.3151 67.5238 63.4207 68.0896C63.7538 69.8741 64.5732 70.6445 65.8789 70.4008C67.0976 70.1734 68.0488 69.4778 68.7324 68.3143C69.4079 67.1072 69.8403 65.5627 70.0295 63.6807L70.5574 41.895L79.9587 40.1403L79.4012 63.2151C79.349 63.9005 79.3919 64.6131 79.53 65.3531C79.6925 66.2236 80.0061 66.8181 80.471 67.1367C80.9712 67.4037 81.7001 67.4478 82.6576 67.2691C83.8763 67.0416 84.8234 66.3243 85.4989 65.1173C86.218 63.9021 86.6762 62.3752 86.8735 60.5368L89.6155 60.025C88.8825 65.0262 87.4775 68.5989 85.4005 70.7432C83.3589 72.8358 81.1411 74.1056 78.7473 74.5524C76.8757 74.9017 75.2767 74.6597 73.95 73.8263C72.667 72.9848 71.7257 71.5616 71.1262 69.5565C70.0932 72.2266 68.831 74.1512 67.3395 75.3304C65.8916 76.5015 64.3189 77.2454 62.6215 77.5623Z" fill="white"/>
<path d="M33.1246 37.5316C30.3988 38.1304 28.4828 39.569 27.3767 41.8474C26.3141 44.1176 26.2418 47.7118 27.1598 52.6301C27.4604 54.2405 27.8239 55.3437 28.2505 55.9397C28.6689 56.4922 28.8862 56.812 28.9024 56.899C26.5521 57.3377 24.7 57.1879 23.3461 56.4498C22.0276 55.6599 21.1572 54.1333 20.7347 51.8701C20.1579 48.7798 20.3956 45.8303 21.4478 43.0216C22.4918 40.1693 24.5216 37.651 27.537 35.4667C30.5959 33.2743 34.6933 31.6988 39.8292 30.7401C40.8738 30.5452 42.2869 30.394 44.0685 30.2867C47.2591 30.0064 49.5073 29.7444 50.813 29.5007C53.1198 29.0702 55.0297 28.4434 56.5426 27.6206C56.4852 28.0366 56.4082 28.9518 56.3119 30.3661C56.2074 31.7368 55.7875 32.9862 55.0522 34.1144C54.3524 35.1909 53.2692 36.0236 51.8027 36.6126C49.2347 37.0919 46.1108 37.2471 42.431 37.0782L42.1139 50.5821L51.6458 48.8029L51.503 53.8291L41.9711 55.6083L41.2647 81.1432L31.8635 82.8979L33.1246 37.5316Z" fill="white"/>
<path d="M123.508 3.55173C128.421 2.76081 133.277 3.89062 137.333 6.709C140.149 8.61279 142.356 11.1592 143.795 14.1492L143.95 14.467C144.546 15.6888 144.977 16.9843 145.232 18.3196C145.278 18.5274 145.322 18.7362 145.361 18.9466C145.905 21.8578 145.772 24.7582 145.011 27.4928L144.847 34.2536C145.905 33.5464 147.335 34.2171 147.468 35.4826L149.571 55.4962C150.107 60.597 149.074 66.318 145.11 71.1661L145.097 71.1821L145.084 71.1975C141.744 75.2577 137.274 77.7029 132.423 78.6084C127.243 79.5752 121.587 78.8277 116.604 75.4118L116.507 75.3452L116.411 75.2774C113.439 73.1652 111.426 70.5127 110.068 67.7959C110.945 67.9675 111.903 67.9578 112.942 67.764C117.08 66.9916 120.088 64.5705 121.97 60.5017C122.526 62.0648 123.345 63.2307 124.426 63.9991C125.976 65.0611 127.795 65.3971 129.884 65.0071C131.756 64.6578 133.261 63.7912 134.399 62.4077C135.572 60.9726 136.043 59.1508 135.811 56.9423C135.25 57.3171 134.578 57.5773 133.794 57.7236C132.837 57.9023 132.108 57.8582 131.608 57.5912C131.143 57.2726 130.829 56.6782 130.667 55.8077C130.546 55.1603 130.498 54.5338 130.523 53.9282L130.538 53.6699L131.096 30.5947L121.694 32.3494L121.167 54.1353L121.141 54.1401C120.944 55.9785 120.485 57.5054 119.766 58.7206C119.091 59.9277 118.144 60.6448 116.925 60.8723C115.967 61.051 115.239 61.0069 114.738 60.74C114.274 60.4214 113.96 59.8268 113.798 58.9563C113.66 58.2165 113.616 57.504 113.669 56.8187L114.596 20.1625L107.445 22.5225C107.417 18.7905 108.481 15.1329 110.622 11.9085C113.476 7.54749 117.849 4.60183 123.024 3.63598L123.508 3.55173ZM124.961 14.0165C124.068 14.1833 122.988 14.553 121.905 15.2535C120.887 15.9124 120.115 16.703 119.569 17.4604C119.534 17.5101 119.499 17.5607 119.465 17.6127L120.701 18.4598L123.847 17.8725C123.199 18.2599 122.649 18.7976 122.199 19.4864L122.052 19.7104C121.352 20.8387 121.128 22.0762 121.379 23.4228L121.435 23.6887C121.74 24.9987 122.45 26.0354 123.563 26.7987C124.677 27.562 125.9 27.8495 127.232 27.6616L127.5 27.6178C128.936 27.3497 130.062 26.6217 130.876 25.4339C131.68 24.3126 131.989 23.0857 131.804 21.7533L131.76 21.4853C131.492 20.049 130.742 18.9276 129.511 18.1215C128.842 17.6417 128.135 17.3386 127.39 17.2111L130.485 16.6336L131.327 15.3467C130.532 14.8122 129.494 14.3251 128.257 14.0679C127.074 13.8215 125.998 13.8455 125.132 13.9868L124.961 14.0165ZM119.426 17.6714C119.208 18.0075 118.997 18.3893 118.807 18.8133L120.646 18.47L119.426 17.6714ZM130.592 16.6135L132.459 16.265C132.123 15.9396 131.779 15.6606 131.444 15.4262L130.592 16.6135Z" fill="#FFB2E4"/>
<path d="M140.349 36.48L137.576 55.6131C136.765 61.2121 134.947 66.9906 131.188 71.8466C127.198 77.0019 121.715 80.2017 115.48 81.3655C113.118 81.8064 110.55 81.9077 107.938 81.4713C105.323 83.131 102.451 84.2028 99.4925 84.7551C93.5351 85.867 87.484 84.7236 82.3066 81.0753C79.717 79.2505 77.7827 77.023 76.3366 74.6568C77.0823 74.7464 77.8856 74.7129 78.7467 74.5522C81.1405 74.1054 83.3583 72.8357 85.3998 70.7432C86.3517 69.7605 87.1615 68.477 87.8311 66.8942C88.4881 68.1223 89.3032 69.0792 90.2763 69.765C92.247 71.1537 94.473 71.6168 96.9538 71.1538C99.0865 70.7558 100.831 69.8444 102.186 68.4204C103.586 66.9881 104.689 65.296 105.495 63.3438C106.098 65.123 107.032 66.39 108.299 67.1445C109.609 67.8908 111.157 68.0973 112.942 67.7642C117.079 66.9919 120.088 64.5708 121.97 60.5019C122.526 62.065 123.345 63.231 124.426 63.9994C125.975 65.0614 127.795 65.3973 129.884 65.0074C131.755 64.6581 133.261 63.7914 134.399 62.4079C135.572 60.9729 136.043 59.151 135.811 56.9425C135.25 57.3174 134.578 57.5776 133.794 57.7238C132.837 57.9025 132.108 57.8584 131.608 57.5915C131.143 57.2729 130.829 56.6784 130.666 55.8079C130.528 55.0681 130.486 54.3555 130.538 53.6702L130.911 38.2416L140.349 36.48ZM128.502 17.5463C127.586 17.1465 126.606 17.0427 125.562 17.2375C124.126 17.5056 123.004 18.2552 122.198 19.4866C121.384 20.6745 121.111 21.9867 121.379 23.423C121.647 24.8593 122.375 25.9847 123.563 26.7989C124.751 27.6131 126.063 27.8861 127.5 27.618C127.761 27.5692 128.012 27.5043 128.253 27.425L128.159 31.143L121.694 32.3497L121.166 54.1355L121.141 54.1403C120.944 55.9788 120.485 57.5057 119.766 58.7209C119.091 59.9279 118.143 60.6451 116.925 60.8725C115.967 61.0512 115.238 61.0071 114.738 60.7402C114.273 60.4216 113.96 59.827 113.797 58.9565C113.659 58.2167 113.616 57.5042 113.668 56.8189L114.596 20.1627L105.177 23.2715L104.781 38.8846L104.732 38.6237C104.545 37.6227 103.96 36.8988 102.976 36.4519C101.991 36.0051 100.607 35.9481 98.8228 36.2812C95.2973 36.9392 92.4818 38.7484 90.3769 41.7086C88.3075 44.6172 86.953 47.9778 86.3134 51.7904C85.7093 55.5514 85.7078 59.0423 86.3089 62.263C86.3479 62.472 86.3889 62.6775 86.4322 62.8791C86.1962 63.7155 85.8858 64.4618 85.4981 65.117C84.8226 66.324 83.8756 67.0411 82.6571 67.2686C81.6995 67.4473 80.9704 67.4033 80.4701 67.1364C80.0054 66.8177 79.6917 66.2231 79.5293 65.3527C79.3912 64.6129 79.3485 63.9003 79.4007 63.215L79.9581 40.1397L75.0508 41.0557C76.1064 38.4756 77.4508 36.0091 79.1031 33.6869C82.2457 29.2687 86.4033 25.9944 91.3159 24.0879L91.53 15.6561C91.5677 14.1742 92.5319 12.8756 93.9395 12.4109L124.188 2.42527C126.495 1.66354 128.86 3.4194 128.799 5.84852L128.502 17.5463ZM101.602 39.9509C102.995 39.691 104.029 40.2862 104.705 41.7364L104.297 57.2843L104.358 57.6108C104.283 59.3814 103.791 60.8468 102.881 62.0074C102.015 63.1599 101.06 63.8337 100.015 64.0287C99.1014 64.1992 98.2609 64.0408 97.4944 63.5533C96.7715 63.0576 96.2067 61.7218 95.8005 59.546C95.3944 57.3698 95.3192 54.7939 95.5746 51.8186C95.8218 48.7998 96.455 46.1591 97.4741 43.897C98.485 41.5914 99.861 40.2759 101.602 39.9509Z" fill="#FFB2E4"/>
<path d="M72.9551 27.3714L94.2028 23.4055L93.8433 38.2787C92.5288 39.164 91.3732 40.3072 90.377 41.7083C88.3075 44.6168 86.953 47.9775 86.3135 51.7901C85.7093 55.5511 85.7078 59.0419 86.3089 62.2627C86.3479 62.4717 86.3889 62.6772 86.4322 62.8787C86.1962 63.7152 85.8858 64.4615 85.4981 65.1167C84.8226 66.3237 83.8757 67.0408 82.6571 67.2683C81.6995 67.447 80.9704 67.403 80.4701 67.136C80.0054 66.8174 79.6918 66.2228 79.5293 65.3524C79.3912 64.6125 79.3485 63.9 79.4008 63.2147L79.9581 40.1394L70.5569 41.8942L70.0288 63.6801C69.8396 65.562 69.4074 67.1066 68.7319 68.3136C68.0483 69.4772 67.0969 70.1726 65.8782 70.4001C64.5725 70.6438 63.7533 69.8736 63.4202 68.0892C63.3146 67.5234 63.2659 66.9018 63.2746 66.2246L63.832 43.1494L54.4307 44.9041L53.9031 66.69C53.8799 68.4959 53.9699 69.943 54.173 71.0311C54.6604 73.6425 55.6571 75.4836 57.163 76.5537C58.7124 77.6157 60.5319 77.9517 62.621 77.5617C64.3184 77.2449 65.891 76.5008 67.3388 75.3298C68.8302 74.1507 70.0925 72.2261 71.1256 69.5561C71.725 71.561 72.6663 72.984 73.9492 73.8255C75.2758 74.6589 76.8751 74.9012 78.7467 74.5519C81.1405 74.1051 83.3583 72.8354 85.3998 70.7429C86.3518 69.7601 87.1615 68.4767 87.8311 66.8939C88.4881 68.1219 89.3032 69.0788 90.2764 69.7647C92.2471 71.1534 94.473 71.6165 96.9538 71.1535C98.9091 70.7885 100.537 69.9906 101.839 68.7632C100.594 72.888 98.6014 77.0006 95.3384 80.3693L95.3035 80.4049C91.6788 84.1202 87.005 87.0856 81.2854 88.1531C78.7361 88.629 75.936 88.7114 73.1031 88.1421C70.7083 89.5773 68.0497 90.6236 65.1597 91.163C59.9797 92.1299 54.3239 91.3824 49.3401 87.9665L49.2436 87.8999L49.1479 87.8321C44.8904 84.8065 42.5997 80.6728 41.384 76.8284L41.9718 55.6076L51.5035 53.8285L51.6462 48.8019L42.1145 50.5811L42.4317 37.0775C46.1114 37.2464 49.2352 37.0909 51.8031 36.6116C53.2695 36.0226 54.353 35.1903 55.0529 34.1138C55.7677 33.0171 56.1835 31.8056 56.3022 30.4797L72.5834 27.4408L72.8313 27.3714L72.9551 27.3714ZM104.668 43.1395L104.361 54.8236L103.43 61.1774C103.268 61.4691 103.086 61.7462 102.881 62.0071C102.015 63.1596 101.06 63.8334 100.015 64.0283C99.1014 64.1989 98.261 64.0404 97.4944 63.553C96.7715 63.0573 96.2067 61.7215 95.8006 59.5457C95.3944 57.3695 95.3192 54.7935 95.5746 51.8183C95.7991 49.0779 96.343 46.6496 97.2035 44.5328L104.668 43.1395Z" fill="#FFB2E4"/>
<path d="M70.2491 29.5124C70.2672 29.3814 70.271 29.331 70.2625 29.4149C70.2558 29.4822 70.2449 29.5992 70.23 29.7771C70.2 30.1343 70.1622 30.6372 70.1166 31.3059L70.113 31.3616L70.1088 31.4169C69.8318 35.0507 68.6794 38.5404 66.6523 41.6553C66.3338 42.1452 65.9993 42.6116 65.6511 43.0555L65.0167 65.3814L63.2869 65.7043L63.8319 43.1495L54.4306 44.9042L53.903 66.6901C53.8798 68.496 53.9698 69.9431 54.1729 71.0312C54.4179 72.3437 54.7913 73.4617 55.2936 74.3849L54.8656 89.8593C54.8199 91.513 53.6261 92.9104 51.9999 93.2139L22.9007 98.6454C20.1516 99.1585 17.6302 97.0042 17.7079 94.2088L18.3974 69.4039C17.8386 69.1671 17.2793 68.9004 16.7231 68.5971L16.4769 68.463L16.236 68.3184C10.1191 64.654 7.91831 58.6116 7.13372 54.4082C6.12407 48.9989 6.50786 43.5191 8.4559 38.2646L8.4549 38.2648C8.46324 38.242 8.4722 38.2194 8.4806 38.1967C8.48425 38.1869 8.48752 38.1769 8.49119 38.1672L8.49219 38.167C10.6866 32.2423 14.7083 27.6739 19.4203 24.2606L19.4771 24.2199C24.6915 20.4826 30.8896 18.3326 37.291 17.1378C39.075 16.8048 41.0448 16.613 42.9913 16.4902C46.0948 16.2156 47.7055 16.0048 48.2748 15.8986C48.9236 15.7775 49.3745 15.655 49.6617 15.5608C49.8444 15.5008 49.9389 15.459 49.9617 15.4487L61.7823 9.01953C66.8429 6.26711 72.8823 10.4428 72.0943 16.1493L70.2491 29.5124ZM56.5429 27.62C55.03 28.4429 53.1202 29.0693 50.8135 29.4998C49.5078 29.7435 47.2596 30.0055 44.069 30.2858C42.2875 30.3931 40.8743 30.5446 39.8298 30.7396C34.6939 31.6982 30.5965 33.2737 27.5376 35.4661C24.5222 37.6504 22.4922 40.1687 21.4481 43.0209C20.396 45.8297 20.1582 48.7793 20.735 51.8695C21.1574 54.1327 22.0281 55.6591 23.3465 56.4489C24.7004 57.1871 26.5524 57.3368 28.9027 56.8982C28.8862 56.8109 28.6689 56.4911 28.2507 55.939C27.8242 55.343 27.4606 54.2398 27.1601 52.6295C26.2421 47.7112 26.3146 44.117 27.3772 41.8468C28.4833 39.5685 30.3991 38.1297 33.1248 37.5309L31.8637 82.8973L41.265 81.1425L41.9717 55.6077L51.5035 53.8286L51.6461 48.8021L42.1144 50.5812L42.4316 37.0776C46.1113 37.2465 49.2351 37.0911 51.803 36.6118C53.2694 36.0228 54.3529 35.1904 55.0528 34.1139C55.7881 32.9858 56.2079 31.736 56.3124 30.3652C56.4087 28.9513 56.4854 28.0362 56.5429 27.62Z" fill="#FFB2E4"/>
<path d="M127.498 27.6182C126.062 27.8863 124.75 27.6132 123.562 26.799C122.374 25.9848 121.646 24.8595 121.378 23.4232C121.11 21.9869 121.383 20.6748 122.197 19.4869C123.003 18.2554 124.125 17.5057 125.561 17.2376C126.997 16.9695 128.313 17.2643 129.509 18.1221C130.741 18.9282 131.491 20.0494 131.759 21.4857C132.027 22.922 131.732 24.2382 130.874 25.4342C130.06 26.6221 128.935 27.3501 127.498 27.6182ZM129.883 65.0074C127.794 65.3974 125.975 65.0613 124.425 63.9993C122.919 62.9292 121.923 61.0884 121.435 58.4769C121.232 57.3888 121.142 55.9418 121.165 54.1358L121.693 32.3501L131.094 30.5953L130.537 53.6702C130.485 54.3556 130.528 55.0682 130.666 55.8081C130.828 56.6786 131.142 57.2732 131.607 57.5918C132.107 57.8587 132.836 57.9028 133.793 57.7241C134.577 57.5779 135.249 57.3173 135.809 56.9424C136.042 59.1512 135.571 60.9731 134.397 62.4082C133.259 63.7917 131.755 64.6581 129.883 65.0074Z" fill="white"/>
<path d="M96.9541 71.1539C94.4732 71.617 92.2474 71.1541 90.2766 69.7654C88.3058 68.3766 86.9833 65.876 86.309 62.2634C85.7078 59.0426 85.7094 55.5517 86.3135 51.7906C86.9531 47.9779 88.3076 44.6172 90.3771 41.7087C92.482 38.7484 95.2972 36.9393 98.8227 36.2813C100.607 35.9482 101.992 36.0051 102.976 36.452C103.96 36.8988 104.546 37.6228 104.732 38.6239L104.781 38.885L105.177 23.2719L114.596 20.1627L113.669 56.8189C113.616 57.5043 113.659 58.2169 113.797 58.9569C113.96 59.8273 114.273 60.4219 114.738 60.7405C115.239 61.0075 115.967 61.0516 116.925 60.8729C118.144 60.6454 119.091 59.9281 119.766 58.721C120.485 57.5059 120.944 55.979 121.141 54.1406L123.883 53.6288C122.682 61.9152 119.035 66.6271 112.942 67.7644C111.157 68.0975 109.61 67.8909 108.299 67.1446C107.032 66.3901 106.098 65.1233 105.495 63.344C104.689 65.2962 103.586 66.9884 102.187 68.4206C100.831 69.8447 99.0868 70.7558 96.9541 71.1539ZM100.016 64.029C101.06 63.834 102.016 63.1603 102.881 62.0078C103.791 60.8471 104.283 59.3815 104.358 57.6109L104.297 57.2845L104.705 41.7367C104.029 40.2865 102.995 39.6913 101.602 39.9513C99.8611 40.2763 98.4851 41.5915 97.4742 43.8972C96.4551 46.1593 95.8219 48.7997 95.5746 51.8186C95.3193 54.7939 95.3947 57.3697 95.8009 59.5459C96.2071 61.7221 96.7717 63.0581 97.4948 63.5537C98.2614 64.0411 99.1017 64.1996 100.016 64.029Z" fill="white"/>
<path d="M62.6215 77.5623C60.5323 77.9522 58.713 77.6162 57.1635 76.5542C55.6576 75.484 54.6609 73.6432 54.1735 71.0317C53.9704 69.9436 53.8804 68.4966 53.9037 66.6906L54.4315 44.9049L63.8328 43.1502L63.2754 66.2251C63.2666 66.9023 63.3151 67.5238 63.4207 68.0896C63.7538 69.8741 64.5732 70.6445 65.8789 70.4008C67.0976 70.1734 68.0488 69.4778 68.7324 68.3143C69.4079 67.1072 69.8403 65.5627 70.0295 63.6807L70.5574 41.895L79.9587 40.1403L79.4012 63.2151C79.349 63.9005 79.3919 64.6131 79.53 65.3531C79.6925 66.2236 80.0061 66.8181 80.471 67.1367C80.9712 67.4037 81.7001 67.4478 82.6576 67.2691C83.8763 67.0416 84.8234 66.3243 85.4989 65.1173C86.218 63.9021 86.6762 62.3752 86.8735 60.5368L89.6155 60.025C88.8825 65.0262 87.4775 68.5989 85.4005 70.7432C83.3589 72.8358 81.1411 74.1056 78.7473 74.5524C76.8757 74.9017 75.2767 74.6597 73.95 73.8263C72.667 72.9848 71.7257 71.5616 71.1262 69.5565C70.0932 72.2266 68.831 74.1512 67.3395 75.3304C65.8916 76.5015 64.3189 77.2454 62.6215 77.5623Z" fill="white"/>
<path d="M33.1246 37.5316C30.3988 38.1304 28.4828 39.569 27.3767 41.8474C26.3141 44.1176 26.2418 47.7118 27.1598 52.6301C27.4604 54.2405 27.8239 55.3437 28.2505 55.9397C28.6689 56.4922 28.8862 56.812 28.9024 56.899C26.5521 57.3377 24.7 57.1879 23.3461 56.4498C22.0276 55.6599 21.1572 54.1333 20.7347 51.8701C20.1579 48.7798 20.3956 45.8303 21.4478 43.0216C22.4918 40.1693 24.5216 37.651 27.537 35.4667C30.5959 33.2743 34.6933 31.6988 39.8292 30.7401C40.8738 30.5452 42.2869 30.394 44.0685 30.2867C47.2591 30.0064 49.5073 29.7444 50.813 29.5007C53.1198 29.0702 55.0297 28.4434 56.5426 27.6206C56.4852 28.0366 56.4082 28.9518 56.3119 30.3661C56.2074 31.7368 55.7875 32.9862 55.0522 34.1144C54.3524 35.1909 53.2692 36.0236 51.8027 36.6126C49.2347 37.0919 46.1108 37.2471 42.431 37.0782L42.1139 50.5821L51.6458 48.8029L51.503 53.8291L41.9711 55.6083L41.2647 81.1432L31.8635 82.8979L33.1246 37.5316Z" fill="white"/>
<path d="M131.76 21.4851C131.492 20.0488 130.742 18.9275 129.511 18.1214C128.314 17.2636 126.998 16.969 125.562 17.2371C124.126 17.5052 123.004 18.2548 122.198 19.4862C121.384 20.6741 121.111 21.9863 121.379 23.4226C121.647 24.859 122.375 25.9843 123.563 26.7986C124.751 27.6127 126.063 27.8857 127.499 27.6176C128.936 27.3495 130.061 26.6216 130.875 25.4337C131.679 24.3125 131.989 23.0855 131.803 21.7531L131.76 21.4851ZM138.56 20.2158C138.956 22.3347 138.796 24.4217 138.117 26.3626L137.608 47.4166L139.075 46.4361C140.173 45.7017 141.659 46.398 141.797 47.7121L142.691 56.2191C143.075 59.8738 142.323 63.6452 139.754 66.7867L139.747 66.7948L139.741 66.8027C137.502 69.5245 134.515 71.1802 131.153 71.8076C127.519 72.486 123.781 71.9439 120.515 69.705L120.467 69.6719L120.419 69.6378C119.047 68.6628 117.966 67.4863 117.118 66.1999C119.176 64.9446 120.793 63.0454 121.969 60.5016C122.526 62.0647 123.344 63.2306 124.426 63.999C125.927 65.0278 127.681 65.3751 129.689 65.0413L129.884 65.007C131.755 64.6577 133.26 63.791 134.398 62.4075C135.572 60.9725 136.043 59.1506 135.811 56.9421C135.25 57.317 134.578 57.5772 133.794 57.7234C132.837 57.9021 132.108 57.858 131.608 57.5911C131.143 57.2725 130.829 56.678 130.666 55.8075C130.546 55.1601 130.498 54.5336 130.523 53.928L130.538 53.6698L131.095 30.5945L121.694 32.3493L121.166 54.1351L121.141 54.1399C120.943 55.9784 120.485 57.5053 119.766 58.7205C119.09 59.9275 118.143 60.6447 116.924 60.8721C116.041 61.0371 115.352 61.0117 114.858 60.7969C114.774 60.4456 114.7 60.0947 114.635 59.7457C114.313 58.0193 114.223 56.0612 114.249 54.0464L114.249 54.0069L114.25 53.9677L114.914 26.5773L115.072 26.5478C114.896 26.0438 114.75 25.5246 114.638 24.9913L114.578 24.692L114.526 24.3913C114.514 24.3207 114.504 24.25 114.494 24.1793L114.596 20.1623L114.566 20.1719C114.852 18.6521 115.437 17.1886 116.32 15.8322L116.492 15.5753C118.322 12.8476 121.036 11.0444 124.293 10.4364L124.602 10.3823C127.751 9.87408 130.816 10.5915 133.421 12.4154C136.149 14.2454 137.952 16.9588 138.56 20.2158Z" fill="#E72F2B"/>
<path d="M105.495 63.3436C106.097 65.1228 107.032 66.3898 108.299 67.1442C109.527 67.8439 110.964 68.0693 112.609 67.8203L112.941 67.764C117.079 66.9916 120.088 64.5705 121.969 60.5017C122.525 62.0648 123.344 63.2307 124.426 63.9991C125.319 64.6115 126.302 64.9818 127.375 65.1114C126.881 65.9846 126.33 66.8202 125.717 67.6117C122.81 71.3673 118.851 73.6984 114.211 74.5646C111.687 75.0356 109.01 74.9347 106.458 73.917C104.126 76.0682 101.297 77.3803 98.2228 77.9542C94.0037 78.7417 89.8652 77.9386 86.2912 75.4202C85.12 74.5949 84.1302 73.6281 83.2936 72.5637C84.015 72.0483 84.7174 71.442 85.3995 70.743C86.3514 69.7602 87.1611 68.4768 87.8307 66.894C88.4877 68.122 89.3028 69.0789 90.276 69.7648C92.1851 71.1101 94.3338 71.5868 96.7217 71.1943L96.9534 71.1536C99.0861 70.7555 100.83 69.8442 102.186 68.4201C103.585 66.9879 104.688 65.2958 105.495 63.3436ZM79.5079 63.5321C79.4723 63.3411 79.4386 63.1495 79.4064 62.9577L79.7351 49.3352C80.6158 45.0852 82.2659 41.174 84.7396 37.6973C87.8689 33.2973 92.2402 30.472 97.5531 29.4803C97.7315 29.447 97.9144 29.4153 98.1012 29.3853L98.3531 19.4636C98.3719 18.7227 98.854 18.0734 99.5578 17.841L119.392 11.2935C120.545 10.9126 121.728 11.7905 121.697 13.0051L121.497 20.9214C121.254 21.7086 121.214 22.5423 121.379 23.4228C121.394 23.5017 121.41 23.5797 121.427 23.6567L120.833 47.1599L121.338 47.0657L121.166 54.1353L121.141 54.1401C120.943 55.9785 120.485 57.5054 119.766 58.7206C119.09 59.9277 118.143 60.6448 116.924 60.8723C115.967 61.051 115.238 61.0069 114.738 60.74C114.302 60.4413 113.999 59.9002 113.829 59.1165L113.797 58.9563C113.659 58.2165 113.616 57.504 113.668 56.8187L114.596 20.1625L105.177 23.2713L104.781 38.8844L104.732 38.6235C104.545 37.6224 103.959 36.8986 102.975 36.4517C101.991 36.0048 100.607 35.9479 98.8224 36.2809C95.2969 36.939 92.4815 38.7482 90.3766 41.7084L90.1848 41.9825C88.2233 44.8275 86.9327 48.0967 86.3131 51.7902L86.2069 52.4922C85.7111 55.9865 85.745 59.2433 86.3085 62.2628L86.3738 62.5984C86.3928 62.6927 86.4119 62.7862 86.4318 62.8788C86.1958 63.7153 85.8854 64.4616 85.4977 65.1168C84.8222 66.3238 83.8753 67.0409 82.6567 67.2684C81.6992 67.4471 80.97 67.4031 80.4698 67.1361C80.4548 67.1259 80.4405 67.1147 80.4258 67.1038C80.0307 65.9304 79.7312 64.7286 79.5079 63.5321ZM101.602 39.9507C102.994 39.6907 104.029 40.286 104.705 41.7361L104.296 57.284L104.357 57.6106C104.283 59.3811 103.79 60.8466 102.881 62.0072C102.015 63.1597 101.06 63.8335 100.015 64.0284C99.101 64.199 98.2606 64.0405 97.494 63.5531C96.8163 63.0883 96.278 61.8852 95.8786 59.9439L95.8002 59.5458C95.394 57.3696 95.3189 54.7936 95.5742 51.8184C95.8215 48.7996 96.4547 46.1589 97.4737 43.8968C98.4847 41.5912 99.8606 40.2756 101.602 39.9507ZM132.115 45.054L130.729 54.6206C130.69 54.8896 130.648 55.1575 130.604 55.4242C130.517 54.8208 130.494 54.2361 130.538 53.6699L130.739 45.3109L132.115 45.054Z" fill="#E72F2B"/>
<path d="M47.3723 72.3003C47.0501 70.5739 46.9596 68.6159 46.9855 66.6012L46.9859 66.5616L46.9869 66.5225L47.2754 54.6176L51.5035 53.8284L51.6462 48.8019L47.397 49.595L47.6505 39.132L84.9506 32.1699C86.0476 31.9651 87.0548 32.8225 87.0279 33.9382L86.6357 50.1652C86.5134 50.6973 86.4059 51.239 86.3134 51.79C85.7093 55.551 85.7078 59.0419 86.3089 62.2626C86.3479 62.4716 86.3888 62.6771 86.4322 62.8787C86.1962 63.7151 85.8857 64.4614 85.498 65.1166C84.8226 66.3236 83.8756 67.0407 82.657 67.2682C81.6995 67.4469 80.9703 67.4029 80.4701 67.136C80.0054 66.8173 79.6917 66.2227 79.5293 65.3523C79.3912 64.6124 79.3485 63.8999 79.4007 63.2146L79.9581 40.1393L70.5568 41.8941L70.0287 63.68C69.8395 65.5619 69.4073 67.1065 68.7319 68.3135C68.0482 69.4771 67.0969 70.1725 65.8782 70.4C64.6133 70.6361 63.805 69.9206 63.4528 68.2533L63.4201 68.0891C63.3145 67.5234 63.2659 66.9017 63.2746 66.2245L63.8319 43.1493L54.4307 44.904L53.9031 66.6899L53.8997 67.3504C53.9041 68.852 53.9952 70.0789 54.1729 71.031L54.2699 71.5118C54.7866 73.8697 55.7512 75.5504 57.163 76.5536C58.6639 77.5823 60.4181 77.9298 62.4255 77.5961L62.621 77.5617C64.3184 77.2448 65.8909 76.5007 67.3388 75.3297C68.8302 74.1506 70.0925 72.226 71.1255 69.5561C71.7249 71.5609 72.6662 72.9839 73.9492 73.8254C75.1928 74.6067 76.6762 74.8687 78.3989 74.6105L78.7467 74.5518C81.1405 74.105 83.3582 72.8353 85.3998 70.7428C86.3517 69.76 87.1614 68.4766 87.8311 66.8938C88.4881 68.1218 89.3032 69.0788 90.2763 69.7646C91.2749 70.4682 92.3392 70.9335 93.4687 71.1617C92.635 72.7838 91.6161 74.2684 90.3688 75.556L90.3601 75.5649L90.3519 75.5737C87.5187 78.4777 84.0727 80.5952 80.016 81.3524C77.3694 81.8464 74.5466 81.713 71.8916 80.5441C71.8247 80.5996 71.7566 80.6538 71.6886 80.7082L71.6892 80.7086C71.6855 80.7115 71.6814 80.714 71.6777 80.7169C71.6615 80.7299 71.6459 80.7436 71.6296 80.7565L71.6289 80.7556C69.3737 82.565 66.779 83.8231 63.8903 84.3623C60.2557 85.0407 56.5181 84.4987 53.2515 82.2598L53.2033 82.2267L53.1554 82.1926C49.6522 79.703 48.0448 75.9034 47.3723 72.3003ZM97.8643 51.4469L96.4598 61.0278C96.426 61.2585 96.39 61.4887 96.353 61.7184C96.1449 61.1234 95.9599 60.3993 95.8005 59.5456C95.3969 57.3833 95.3206 54.8263 95.5701 51.8751L97.8643 51.4469Z" fill="#E72F2B"/>
<path d="M63.3962 28.5664C63.3949 28.5776 63.3888 28.6249 63.3792 28.7202C63.3674 28.837 63.353 28.9943 63.3359 29.1976C63.3017 29.6049 63.2613 30.1479 63.2145 30.8358L63.2124 30.8637L63.2103 30.8911C63.0193 33.3959 62.2324 35.7682 60.8486 37.8913L60.848 37.8909C60.2038 38.8804 59.4497 39.7324 58.6211 40.4626L58.8047 40.4283L58.7003 44.1073L54.4305 44.9042L54.0555 60.3898L48.7328 61.3833L48.0653 85.5009C48.0424 86.3278 47.4455 87.0265 46.6324 87.1782L26.8475 90.8711C25.7479 91.0763 24.7393 90.2147 24.7704 89.0965L25.467 64.0298C23.6499 63.9166 21.7924 63.4816 20.0348 62.5233L19.9116 62.4559L19.7913 62.3839C16.0735 60.1568 14.5378 56.3722 13.9343 53.1388C13.1411 48.8895 13.4519 44.6747 14.952 40.643C14.9557 40.633 14.9593 40.623 14.963 40.6129C14.9653 40.6067 14.9675 40.6003 14.9698 40.594C16.5894 36.2045 19.6165 32.6614 23.4787 29.8636L23.507 29.8428C27.6436 26.8779 32.7917 25.0157 38.5604 23.9389C39.982 23.6736 41.6769 23.5027 43.5343 23.388C46.683 23.1104 48.6095 22.8736 49.5441 22.6992C51.3781 22.3569 52.5448 21.9193 53.2374 21.5426L62.2163 16.659C63.4814 15.9709 64.9912 17.0148 64.7943 18.4414L63.3962 28.5664ZM56.5428 27.6201C55.0299 28.4429 53.1201 29.0693 50.8134 29.4998C49.5077 29.7436 47.2595 30.0055 44.069 30.2858C42.2875 30.3931 40.8743 30.5446 39.8297 30.7396C34.6939 31.6982 30.5964 33.2738 27.5375 35.4661C24.5221 37.6504 22.4921 40.1687 21.448 43.021C20.3959 45.8297 20.1581 48.7793 20.7349 51.8695C21.1574 54.1327 22.028 55.6591 23.3465 56.4489C24.7003 57.1871 26.5523 57.3368 28.9026 56.8982C28.8861 56.8109 28.6688 56.4911 28.2507 55.939C27.8242 55.343 27.4606 54.2398 27.16 52.6295C26.242 47.7112 26.3145 44.117 27.3771 41.8468C28.4833 39.5685 30.399 38.1298 33.1248 37.5309L31.8636 82.8973L41.2649 81.1425L41.9717 55.6077L51.5034 53.8286L51.646 48.8021L42.1143 50.5812L42.4315 37.0776C46.1113 37.2465 49.235 37.0911 51.8029 36.6118C53.2694 36.0228 54.3529 35.1904 55.0527 34.1139C55.788 32.9858 56.2078 31.736 56.3123 30.3652C56.4086 28.9513 56.4854 28.0362 56.5428 27.6201Z" fill="#E72F2B"/>
</svg>
